<svg xmlns="http://www.w3.org/2000/svg" xmlns:xlink="http://www.w3.org/1999/xlink" version="1.1" viewBox="0 0 99.23 112.03125" overflow="visible" xml:space="preserve" x="0px" y="0px"><polygon points="49.846,15.58 57.668,0 59.123,14.811 72.545,3.088 69.336,13.835 85.201,8.963 78.089,18.882 96.175,11.479   81.926,24.154 94.951,24.241 81.751,31.552 99.23,36.55 75.283,40.238 85.201,54.141 64.541,49.154 35.86,89.625 49.218,46.897   48.034,47.342 27.146,60.016 31.461,48.165 12.521,53.874 24.234,43.56 0.461,45.57 17.329,31.552 2.993,26.576 18.552,24.591   0,7.458 28.168,17.249 27.146,3.088 42.12,16.361 42.024,0 "/></svg>