<svg xmlns="http://www.w3.org/2000/svg" xmlns:xlink="http://www.w3.org/1999/xlink" version="1.1" x="0px" y="0px" viewBox="0 0 100 125" style="enable-background:new 0 0 100 100;" xml:space="preserve"><style type="text/css">
	.st0{fill:none;stroke:#000000;stroke-width:3;stroke-miterlimit:10;}
</style><g><path d="M50.2,85c3.8,0,11.1-11.2,14-15.9c0.8-1.3,2.2-2,3.6-2h6c6.1,0,11-4.9,11-11V26c0-6.1-4.9-11-11-11c0,0-23.9,0-23.9,0H26.1   c-6.1,0-11,4.9-11,11v30.1c0,6.1,4.9,11,11,11h6c1.5,0,2.9,0.8,3.6,2C38.7,73.8,46,85,49.8,85H50.2z"/><path d="M50.2,86.5h-0.5c-3.3,0-8.5-5.6-15.3-16.6c-0.5-0.8-1.4-1.3-2.4-1.3h-6c-6.9,0-12.5-5.6-12.5-12.5V26   c0-6.9,5.6-12.5,12.5-12.5h47.8c6.9,0,12.5,5.6,12.5,12.5v30.1c0,6.9-5.6,12.5-12.5,12.5h-6c-1,0-1.9,0.5-2.4,1.3   C58.7,80.9,53.6,86.5,50.2,86.5z M26.1,16.5c-5.2,0-9.5,4.3-9.5,9.5v30.1c0,5.2,4.3,9.5,9.5,9.5h6c2,0,3.9,1,4.9,2.7   c6.4,10.4,11.1,15.2,12.7,15.2h0.5c1.6,0,6.3-4.7,12.7-15.2c1.1-1.7,2.9-2.7,4.9-2.7h6c5.2,0,9.5-4.3,9.5-9.5V26   c0-5.2-4.3-9.5-9.5-9.5H26.1z"/></g></svg>