<svg xmlns:dc="http://purl.org/dc/elements/1.1/" xmlns:cc="http://creativecommons.org/ns#" xmlns:rdf="http://www.w3.org/1999/02/22-rdf-syntax-ns#" xmlns:svg="http://www.w3.org/2000/svg" xmlns="http://www.w3.org/2000/svg" xmlns:sodipodi="http://sodipodi.sourceforge.net/DTD/sodipodi-0.dtd" xmlns:inkscape="http://www.inkscape.org/namespaces/inkscape" viewBox="0 0 100 125" version="1.1" x="0px" y="0px"><g transform="translate(0,-952.36216)"><path style="color:#000000;clip-rule:nonzero;display:inline;overflow:visible;visibility:visible;opacity:1;isolation:auto;mix-blend-mode:normal;color-interpolation:sRGB;color-interpolation-filters:linearRGB;solid-color:#000000;solid-opacity:1;fill:#000000;fill-opacity:1;fill-rule:nonzero;stroke:none;stroke-width:12.5;stroke-linecap:round;stroke-linejoin:miter;stroke-miterlimit:4;stroke-dasharray:none;stroke-dashoffset:0;stroke-opacity:1;marker:none;color-rendering:auto;image-rendering:auto;shape-rendering:auto;text-rendering:auto;enable-background:accumulate" d="m 50.000474,957.36216 c -17.90289,0 -38.13986,4.35626 -38.13986,28.03855 0,23.68239 20.23697,28.03759 38.13986,28.03759 17.902891,0 38.138912,-4.3552 38.138912,-28.03759 0,-23.68229 -20.23602,-28.03855 -38.138911,-28.03855 z m 0,58.79084 c -3.927017,0 -8.369112,0.9558 -8.369112,6.1515 0,5.1965 4.442095,6.1513 8.369112,6.1513 3.927976,0 8.366256,-0.9548 8.366256,-6.1513 0,-5.1957 -4.43828,-6.1515 -8.366256,-6.1515 z m -5.138409,15.0156 c -2.591622,0 -5.521863,0.6304 -5.521863,4.0596 0,3.4301 2.930241,4.0596 5.521863,4.0596 2.592571,0 5.52377,-0.6295 5.52377,-4.0596 0,-3.4292 -2.931199,-4.0596 -5.52377,-4.0596 z m -7.904591,10.8338 c -1.710263,0 -3.644676,0.415 -3.644676,2.6785 0,2.2644 1.934413,2.6813 3.644676,2.6813 1.711212,0 3.645634,-0.4169 3.645634,-2.6813 0,-2.2635 -1.934422,-2.6785 -3.645634,-2.6785 z"/></g></svg>