<svg xmlns="http://www.w3.org/2000/svg" xmlns:xlink="http://www.w3.org/1999/xlink" xml:space="preserve" version="1.1" style="shape-rendering:geometricPrecision;text-rendering:geometricPrecision;image-rendering:optimizeQuality;" viewBox="0 0 312 335" x="0px" y="0px" fill-rule="evenodd" clip-rule="evenodd"><defs><style type="text/css">

    .fil0 {fill:black}

  </style></defs><g><path class="fil0" d="M295 111c20,19 23,50 7,72 -17,22 -48,28 -71,13 -25,60 -109,64 -140,7 -3,-10 -5,-21 -4,-31 -3,9 -3,19 -3,28 -23,39 -84,23 -84,-23 0,-23 16,-41 37,-45 0,-4 -1,-9 -1,-13 0,-37 30,-66 66,-66 9,0 16,1 24,4 -2,12 0,25 3,36 -4,-49 35,-93 85,-93 47,0 85,38 85,85 0,9 -1,18 -4,26z"/><circle class="fil0" cx="116" cy="260" r="8"/><circle class="fil0" cx="85" cy="236" r="19"/></g></svg>