<svg xmlns="http://www.w3.org/2000/svg" viewBox="0 0 96 120" x="0px" y="0px"><title>Artboard 33</title><g><circle cx="12" cy="84" r="4"/><circle cx="26" cy="74" r="6"/><path d="M82.9336,35.2539A13.5175,13.5175,0,0,0,84,30,14.017,14.017,0,0,0,70,16a13.6481,13.6481,0,0,0-3.2246.3867,13.921,13.921,0,0,0-24.6367-1.75A13.7609,13.7609,0,0,0,34,12,14.0225,14.0225,0,0,0,20.125,24.125a14.0013,14.0013,0,0,0,1.2715,27.8633,14.0859,14.0859,0,0,0,15.8281,7.625A13.8831,13.8831,0,0,0,59.9023,63.82a13.3007,13.3007,0,0,0,12-4A12.7719,12.7719,0,0,0,74,60a13.9775,13.9775,0,0,0,8.9336-24.7461Z"/></g></svg>